<svg enable-background="new 0 0 52 52" height="52" viewBox="0 0 52 52" width="52" xmlns="http://www.w3.org/2000/svg"><g fill="#fff"><path d="m21 48.5v-3c0-.8-.7-1.5-1.5-1.5h-10c-.8 0-1.5-.7-1.5-1.5v-33c0-.8.7-1.5 1.5-1.5h10c.8 0 1.5-.7 1.5-1.5v-3c0-.8-.7-1.5-1.5-1.5h-13.5c-2.2 0-4 1.8-4 4v40c0 2.2 1.8 4 4 4h13.5c.8 0 1.5-.7 1.5-1.5z"/><path d="m49.6 27c.6-.6.6-1.5 0-2.1l-13.5-13.5c-.6-.6-1.5-.6-2.1 0l-2.1 2.1c-.6.6-.6 1.5 0 2.1l5.6 5.6c.6.6.2 1.7-.7 1.7h-21.3c-.8 0-1.5.6-1.5 1.4v3c0 .8.7 1.6 1.5 1.6h21.2c.9 0 1.3 1.1.7 1.7l-5.6 5.6c-.6.6-.6 1.5 0 2.1l2.1 2.1c.6.6 1.5.6 2.1 0z"/></g></svg>